<?xml version="1.0" standalone="no"?>
<!DOCTYPE svg PUBLIC "-//W3C//DTD SVG 20010904//EN"
 "http://www.w3.org/TR/2001/REC-SVG-20010904/DTD/svg10.dtd">
<svg version="1.0" xmlns="http://www.w3.org/2000/svg"
 width="192.000000pt" height="192.000000pt" viewBox="0 0 192.000000 192.000000"
 preserveAspectRatio="xMidYMid meet">

<g transform="translate(0.000000,192.000000) scale(0.100000,-0.100000)"
fill="#000000" stroke="none">
<path d="M333 1845 c-106 -32 -195 -114 -235 -214 -23 -56 -23 -60 -26 -625
-3 -597 0 -663 40 -744 30 -64 107 -138 176 -170 l57 -27 630 0 630 0 55 26
c115 55 188 152 210 279 8 45 10 243 8 635 -3 539 -5 573 -23 618 -44 106
-135 191 -238 222 -70 21 -1218 21 -1284 0z m46 -253 c41 -26 76 -52 78 -59 2
-6 -35 -34 -82 -63 -70 -42 -88 -50 -100 -40 -24 20 -18 27 45 62 33 18 60 36
60 40 0 4 -15 15 -32 24 -59 30 -87 54 -81 69 9 24 33 17 112 -33z m351 -152
c0 -19 -7 -20 -115 -20 -108 0 -115 1 -115 20 0 19 7 20 115 20 108 0 115 -1
115 -20z m495 -137 c85 -44 153 -138 171 -236 4 -27 13 -41 29 -47 41 -16 98
-74 121 -125 26 -56 31 -125 12 -187 -15 -50 -78 -122 -132 -151 -40 -21 -51
-22 -424 -25 -327 -3 -391 -1 -438 13 -170 49 -238 256 -131 397 18 24 53 54
79 68 40 21 47 30 52 62 14 85 121 148 215 127 43 -10 44 -9 77 30 19 22 62
54 97 71 58 30 67 31 147 28 60 -3 97 -10 125 -25z"/>
<path d="M1017 1236 c-56 -20 -100 -59 -128 -110 -27 -52 -54 -59 -96 -26 -67
52 -147 2 -155 -99 -3 -30 -8 -35 -56 -53 -75 -28 -112 -80 -112 -158 0 -63
22 -106 73 -144 28 -20 41 -21 420 -24 279 -2 399 1 419 9 70 29 118 125 98
198 -15 56 -45 89 -109 119 l-56 27 -6 60 c-7 70 -24 107 -71 152 -59 57 -145
76 -221 49z m51 -149 c37 -37 42 -49 42 -87 0 -34 -6 -50 -27 -72 l-27 -28 99
-100 100 -100 -33 -32 -32 -33 -99 99 -100 99 -36 -31 c-52 -46 -93 -44 -150
9 -41 38 -45 46 -45 88 0 44 3 48 92 138 86 87 95 93 133 93 35 0 47 -6 83
-43z"/>
<path d="M951 1101 c-10 -6 3 -25 53 -76 36 -37 70 -64 76 -60 5 3 10 21 10
39 0 62 -92 127 -139 97z"/>
<path d="M865 1020 l-60 -60 68 -68 67 -67 62 63 63 62 -65 65 c-35 36 -67 65
-70 65 -3 0 -32 -27 -65 -60z"/>
<path d="M787 944 c-4 -4 -7 -21 -7 -39 0 -43 63 -105 107 -105 18 0 34 4 37
8 7 11 -128 145 -137 136z"/>
<path d="M1020 864 c-20 -23 8 -47 44 -38 l27 6 -22 24 c-26 28 -32 29 -49 8z"/>
<path d="M1062 812 c-9 -6 -6 -15 14 -33 25 -23 26 -24 40 -5 23 32 -17 61
-54 38z"/>
<path d="M1123 761 c-14 -23 0 -41 32 -41 33 0 37 11 13 37 -26 28 -30 28 -45
4z"/>
<path d="M1178 713 c-22 -6 -23 -17 -2 -33 12 -11 18 -11 31 2 8 9 12 21 9 27
-7 11 -10 12 -38 4z"/>
</g>
</svg>
